<svg width="20" height="20" viewBox="0 0 20 20" fill="none" xmlns="http://www.w3.org/2000/svg">
<path d="M18.3096 15.2648C18.3096 15.5648 18.243 15.8732 18.1013 16.1732C17.9596 16.4732 17.7763 16.7565 17.5346 17.0232C17.1263 17.4732 16.6763 17.7982 16.168 18.0065C15.668 18.2148 15.1263 18.3232 14.543 18.3232C13.693 18.3232 12.7846 18.1232 11.8263 17.7148C10.868 17.3065 9.90964 16.7565 8.95964 16.0648C8.0013 15.3648 7.09297 14.5898 6.2263 13.7315C5.36797 12.8648 4.59297 11.9565 3.9013 11.0065C3.21797 10.0565 2.66797 9.10649 2.26797 8.16483C1.86797 7.21483 1.66797 6.30649 1.66797 5.43983C1.66797 4.87316 1.76797 4.33149 1.96797 3.83149C2.16797 3.32316 2.48464 2.85649 2.9263 2.43983C3.45964 1.91483 4.04297 1.65649 4.65964 1.65649C4.89297 1.65649 5.1263 1.70649 5.33464 1.80649C5.5513 1.90649 5.74297 2.05649 5.89297 2.27316L7.8263 4.99816C7.9763 5.20649 8.08464 5.39816 8.15964 5.58149C8.23464 5.75649 8.2763 5.93149 8.2763 6.08983C8.2763 6.28983 8.21797 6.48983 8.1013 6.68149C7.99297 6.87316 7.83464 7.07316 7.63464 7.27316L7.0013 7.93149C6.90964 8.02316 6.86797 8.13149 6.86797 8.26483C6.86797 8.33149 6.8763 8.38983 6.89297 8.45649C6.91797 8.52316 6.94297 8.57316 6.95964 8.62316C7.10964 8.89816 7.36797 9.25649 7.73464 9.68983C8.10964 10.1232 8.50964 10.5648 8.94297 11.0065C9.39297 11.4482 9.8263 11.8565 10.268 12.2315C10.7013 12.5982 11.0596 12.8482 11.343 12.9982C11.3846 13.0148 11.4346 13.0398 11.493 13.0648C11.5596 13.0898 11.6263 13.0982 11.7013 13.0982C11.843 13.0982 11.9513 13.0482 12.043 12.9565L12.6763 12.3315C12.8846 12.1232 13.0846 11.9648 13.2763 11.8648C13.468 11.7482 13.6596 11.6898 13.868 11.6898C14.0263 11.6898 14.193 11.7232 14.3763 11.7982C14.5596 11.8732 14.7513 11.9815 14.9596 12.1232L17.718 14.0815C17.9346 14.2315 18.0846 14.4065 18.1763 14.6148C18.2596 14.8232 18.3096 15.0315 18.3096 15.2648Z" stroke="#006D35" stroke-width="1.2" stroke-miterlimit="10"/>
</svg>
