<svg width="40" height="35" viewBox="0 0 40 35" fill="none" xmlns="http://www.w3.org/2000/svg">
<path d="M7.73036 16L18.5304 7.9C19.2415 7.36667 20.2192 7.36667 20.9304 7.9L31.7304 16M7.73036 16L5.73036 17.5C2.23046 20 -0.769607 15.5 2.23036 13.5L18.0561 1.86339C18.7559 1.34886 19.7078 1.3448 20.4119 1.85334L37.1005 13.9062C37.1869 13.9686 37.271 14.0396 37.3443 14.1172C40.1394 17.0772 36.6914 19.9674 33.7304 17.5L31.7304 16M7.73036 16V31.5C7.73036 32.6046 8.62579 33.5 9.73036 33.5H29.7304C30.8349 33.5 31.7304 32.6046 31.7304 31.5V16" stroke="white" stroke-width="1.73913"/>
</svg>
