<svg width="34" height="36" viewBox="0 0 34 36" fill="none" xmlns="http://www.w3.org/2000/svg">
<path d="M32.1507 0.749284C29.3007 -0.975716 24.3507 2.99928 19.5507 10.9493C18.9507 11.9243 18.3507 12.9743 17.8257 14.0243C17.3007 13.9493 16.7757 13.9493 16.1757 14.0243C15.5757 12.8993 14.9757 11.9243 14.4507 10.9493C9.65065 3.07428 4.70065 -0.975716 1.85065 0.749284C0.80065 1.42428 -0.17435 2.99928 0.72565 6.82428C1.40065 9.59928 2.90065 12.9743 5.15065 16.6493C5.97565 17.9993 6.87565 19.3493 7.77565 20.6243C6.42565 22.8743 5.60065 25.4243 5.60065 27.2993C5.60065 31.9493 10.7007 35.6993 17.0007 35.6993C23.3007 35.6993 28.4757 31.9493 28.4757 27.2993C28.4757 25.4243 27.6507 22.9493 26.3007 20.6243C27.2007 19.3493 28.1007 17.9993 28.9257 16.7243C31.1757 13.0493 32.6757 9.67428 33.3507 6.89928C34.1757 2.99928 33.2007 1.42428 32.1507 0.749284ZM2.90065 6.29928C2.30065 3.89928 2.67565 2.92428 3.05065 2.69928C3.12565 2.62428 3.27565 2.62428 3.42565 2.62428C4.77565 2.62428 8.30065 5.09929 12.5757 12.1493C13.0257 12.8993 13.5507 13.7993 14.0007 14.6243C13.9257 14.6243 13.9257 14.6993 13.8507 14.6993C13.7007 14.7743 13.4757 14.8493 13.3257 14.9243C13.2507 14.9243 13.1757 14.9993 13.1007 15.0743C12.9507 15.1493 12.8007 15.2243 12.6507 15.3743C12.5757 15.3743 12.5007 15.4493 12.5007 15.4493C12.2757 15.5993 12.0507 15.7493 11.9007 15.8993C11.7507 16.0493 11.5257 16.1993 11.3757 16.3493C11.3007 16.4243 11.3007 16.4243 11.2257 16.4993C11.0757 16.6493 10.9257 16.7243 10.8507 16.8743C10.7757 16.9493 10.7757 16.9493 10.7007 17.0243C10.5507 17.1743 10.4007 17.3243 10.2507 17.4743L10.1757 17.5493C10.0257 17.6993 9.87565 17.8493 9.72565 18.0743C9.65065 18.1493 9.65065 18.1493 9.65065 18.2243C9.57565 18.3743 9.42565 18.4493 9.35065 18.5993L9.27565 18.6743C8.52565 17.6243 7.85065 16.5743 7.25065 15.5243C5.00065 12.0743 3.50065 8.77428 2.90065 6.29928ZM17.0007 33.3743C11.9757 33.3743 7.85065 30.5993 7.85065 27.2243C7.85065 25.5743 8.75065 23.2493 10.1007 21.1493C11.7507 18.5993 13.8507 16.8743 15.8757 16.4243C16.2507 16.3493 16.6257 16.2743 17.0007 16.2743C17.3757 16.2743 17.7507 16.3493 18.2007 16.4243C18.4257 16.4993 18.7257 16.5743 18.9507 16.6493C20.7507 17.3243 22.5507 18.8993 23.9757 21.1493C25.3257 23.2493 26.2257 25.6493 26.2257 27.2243C26.2257 30.5993 22.1007 33.3743 17.0007 33.3743ZM31.1007 6.29928C30.5007 8.77428 29.0007 12.0743 26.9757 15.4493C26.3757 16.4993 25.6257 17.5493 24.9507 18.5993C24.9507 18.5993 24.9507 18.5243 24.8757 18.5243C24.8007 18.3743 24.6507 18.2243 24.5757 18.1493L24.5007 18.0743C24.3507 17.9243 24.2007 17.6993 24.0507 17.5493C23.9007 17.3993 23.7507 17.2493 23.6007 17.0993C23.5257 17.0243 23.5257 17.0243 23.4507 16.9493C23.3007 16.7993 23.1507 16.7243 23.0007 16.5743C22.9257 16.4993 22.9257 16.4993 22.8507 16.4243C22.4757 16.1243 22.0257 15.8243 21.6507 15.5243C21.5757 15.5243 21.5757 15.4493 21.5007 15.4493C21.3507 15.3743 21.1257 15.2243 20.9757 15.1493C20.8257 14.9993 20.7507 14.9993 20.7507 14.9993C20.5257 14.9243 20.3757 14.7743 20.1507 14.6993H20.0757C20.5257 13.8743 21.0507 12.9743 21.5007 12.1493C26.2257 4.34928 30.0507 2.09928 30.9507 2.69928C31.3257 2.92428 31.7007 3.89928 31.1007 6.29928Z" fill="white"/>
<path d="M13.2516 21.6016C12.5766 21.6016 11.9766 22.2016 11.9766 22.8766C11.9766 23.5516 12.5766 24.1516 13.2516 24.1516C13.9266 24.1516 14.5266 23.5516 14.5266 22.8766C14.5266 22.2016 13.9266 21.6016 13.2516 21.6016Z" fill="white"/>
<path d="M20.7516 21.6016C20.0766 21.6016 19.4766 22.2016 19.4766 22.8766C19.4766 23.5516 20.0766 24.1516 20.7516 24.1516C21.4266 24.1516 22.0266 23.5516 22.0266 22.8766C22.1016 22.2016 21.5016 21.6016 20.7516 21.6016Z" fill="white"/>
<path d="M17.0016 25.875C15.6516 25.875 14.6016 26.55 14.6016 27.375C14.6016 28.2 15.7266 29.4 17.0016 29.4C18.2766 29.4 19.4016 28.2 19.4016 27.375C19.4016 26.55 18.3516 25.875 17.0016 25.875Z" fill="white"/>
</svg>
